<svg height="496pt" viewBox="-80 0 496 496" width="496pt" xmlns="http://www.w3.org/2000/svg" xmlns:xlink="http://www.w3.org/1999/xlink"><linearGradient id="linear0" gradientUnits="userSpaceOnUse" x1="168" x2="168" y1="496" y2="0"><stop offset="0" stop-color="#9f2fff"/><stop offset="1" stop-color="#0bb1d3"/></linearGradient><path d="m168 0c-92.640625 0-168 75.367188-168 168v34.246094l86.984375 142.347656-25.167969 56.636719c-3.855468 8.664062-5.816406 17.882812-5.816406 27.371093 0 37.167969 30.230469 67.398438 67.390625 67.398438h89.210937c37.167969 0 67.398438-30.230469 67.398438-67.398438 0-9.496093-1.960938-18.707031-5.808594-27.371093l-25.175781-56.644531 86.984375-142.339844v-34.246094c0-92.632812-75.359375-168-168-168zm66.800781 352 14.222657 32h-162.046876l14.214844-32zm-68.023437-16-22.769532-136.617188c.328126-12.941406 10.96875-23.382812 23.992188-23.382812 13.097656 0 23.734375 10.550781 23.960938 23.601562l-22.738282 136.398438zm-6.777344-175.191406c-9.808594 2-18.222656 7.679687-24 15.4375-7.296875-9.796875-18.871094-16.246094-32-16.246094-8.710938 0-16.71875 2.878906-23.296875 7.625 6.226563-78.585938 55.929687-126.074219 79.296875-144.226562zm-56 15.191406c13.230469 0 24 10.769531 24 24l22.566406 136h-17.085937l-53.433594-137.398438c.722656-12.585937 11.183594-22.601562 23.953125-22.601562zm81.441406 160 22.445313-134.6875.113281-1.3125c0-13.230469 10.769531-24 24-24 12.769531 0 23.230469 10.015625 23.960938 22.601562l-53.433594 137.398438zm46.558594-176c-13.128906 0-24.71875 6.425781-32.015625 16.222656-5.777344-7.742187-14.183594-13.421875-23.984375-15.414062v-137.410156c23.367188 18.152343 73.070312 65.632812 79.296875 144.226562-6.578125-4.746094-14.585937-7.625-23.296875-7.625zm-91.742188-141.34375c-27.800781 23.984375-70.570312 72.976562-75.691406 150.015625-6.804687-5.34375-15.261718-8.671875-24.566406-8.671875-9.039062 0-17.296875 3.128906-24 8.207031v-.207031c0-74.328125 53.664062-136.257812 124.257812-149.34375zm-100.257812 157.34375c13.230469 0 24 10.769531 24 24v1.503906l52.304688 134.496094h-15.816407l-84.398437-138.105469c1.070312-12.246093 11.390625-21.894531 23.910156-21.894531zm172.609375 304h-89.21875c-28.335937 0-51.390625-23.054688-51.390625-51.398438 0-7.242187 1.496094-14.257812 4.433594-20.867187l3.4375-7.734375h176.265625l3.4375 7.734375c2.929687 6.609375 4.425781 13.625 4.425781 20.867187 0 28.34375-23.054688 51.398438-51.390625 51.398438zm22.902344-144h-15.816407l52.304688-134.496094v-1.503906c0-13.230469 10.769531-24 24-24 12.519531 0 22.839844 9.648438 23.910156 21.894531zm84.488281-167.792969c-6.703125-5.078125-14.960938-8.207031-24-8.207031-9.304688 0-17.761719 3.328125-24.566406 8.671875-5.128906-77.039063-47.890625-126.03125-75.691406-150.015625 70.59375 13.085938 124.257812 75.015625 124.257812 149.34375zm0 0" fill="url(#linear0)"/></svg>
